# xmcd
#
# Track frame offsets:
#	182
#	18632
#	45260
#	76500
#
# Disc length: 1466 seconds
#
# Revision: 1
# Processed by: cddbd v1.5.1PL0 Copyright (c) Steve Scherf et al.
# Submitted via: EasyCDDAExtractor 6.5.0.1
#
DISCID=1c05b804
DTITLE=Channel 69 - 10, 9, 8, 7, 69
DYEAR=1900
DGENRE=
TTITLE0=10, 9, 8, 7, 69(Original Version)
TTITLE1=10, 9, 8, 7, 69(Hit Mix)
TTITLE2=10, 9, 8, 7, 69(Mark G! Mix)
TTITLE3=10, 9, 8, 7, 69(Miss You Mix)
EXTD=
EXTT0=
EXTT1=
EXTT2=
EXTT3=
PLAYORDER=
